<svg viewBox="0 0 192 192" xmlns="http://www.w3.org/2000/svg">
  <!-- Background -->
  <rect width="192" height="192" fill="#4F46E5" rx="45"/>
  
  <!-- Gradient defs -->
  <defs>
    <linearGradient id="grad1" x1="0%" y1="0%" x2="100%" y2="100%">
      <stop offset="0%" style="stop-color:#7C3AED;stop-opacity:1" />
      <stop offset="100%" style="stop-color:#4F46E5;stop-opacity:1" />
    </linearGradient>
  </defs>
  
  <!-- Background with gradient -->
  <rect width="192" height="192" fill="url(#grad1)" rx="45"/>
  
  <!-- Book icon -->
  <g transform="translate(48, 40)">
    <!-- Left page -->
    <path d="M 16 10 L 16 90 Q 16 100 26 100 L 48 100 Q 58 100 58 90 L 58 10 Q 58 0 48 0 L 26 0 Q 16 0 16 10 Z" fill="white" opacity="0.9"/>
    
    <!-- Right page -->
    <path d="M 58 10 L 58 90 Q 58 100 68 100 L 90 100 Q 100 100 100 90 L 100 10 Q 100 0 90 0 L 68 0 Q 58 0 58 10 Z" fill="white" opacity="0.7"/>
    
    <!-- Spine -->
    <line x1="58" y1="10" x2="58" y2="90" stroke="#7C3AED" stroke-width="3"/>
    
    <!-- Lines on pages (text representation) -->
    <line x1="24" y1="25" x2="48" y2="25" stroke="#4F46E5" stroke-width="2" opacity="0.6"/>
    <line x1="24" y1="38" x2="48" y2="38" stroke="#4F46E5" stroke-width="2" opacity="0.6"/>
    <line x1="24" y1="51" x2="48" y2="51" stroke="#4F46E5" stroke-width="2" opacity="0.6"/>
    <line x1="24" y1="64" x2="48" y2="64" stroke="#4F46E5" stroke-width="2" opacity="0.6"/>
    
    <line x1="66" y1="25" x2="90" y2="25" stroke="#4F46E5" stroke-width="2" opacity="0.6"/>
    <line x1="66" y1="38" x2="90" y2="38" stroke="#4F46E5" stroke-width="2" opacity="0.6"/>
    <line x1="66" y1="51" x2="90" y2="51" stroke="#4F46E5" stroke-width="2" opacity="0.6"/>
    <line x1="66" y1="64" x2="90" y2="64" stroke="#4F46E5" stroke-width="2" opacity="0.6"/>
  </g>
  
  <!-- AI brain circle at bottom right -->
  <g transform="translate(110, 110)">
    <circle cx="0" cy="0" r="35" fill="#10B981" opacity="0.95"/>
    <text x="-8" y="12" font-size="32" font-weight="bold" fill="white">⚡</text>
  </g>
</svg>
